<svg width="720" height="520" viewBox="0 0 720 520" fill="none" xmlns="http://www.w3.org/2000/svg"><defs><linearGradient id="a"><stop stop-color="#20271F"/><stop offset="1" stop-color="#050705"/></linearGradient><radialGradient id="g"><stop stop-color="#8BFF00" stop-opacity=".28"/><stop offset="1" stop-color="#8BFF00" stop-opacity="0"/></radialGradient></defs><rect width="720" height="520" rx="48" fill="url(#a)"/><circle cx="360" cy="260" r="240" fill="url(#g)"/><rect x="225" y="61" width="270" height="398" rx="34" fill="#0C100D" stroke="#8BFF00" stroke-width="5"/><rect x="251" y="96" width="218" height="45" rx="12" fill="#171F18"/><circle cx="432" cy="118" r="10" fill="#8BFF00"/><path d="M270 183H450M270 239H450M270 295H450M270 351H450M270 407H450" stroke="white" stroke-opacity=".26" stroke-width="10" stroke-linecap="round"/><g fill="#8BFF00" fill-opacity=".5"><circle cx="308" cy="183" r="15"/><circle cx="369" cy="239" r="15"/><circle cx="412" cy="295" r="15"/><circle cx="326" cy="351" r="15"/></g><path d="M167 183C141 214 143 251 170 280M552 191C576 225 573 259 548 287" stroke="#8BFF00" stroke-opacity=".35" stroke-width="6" stroke-linecap="round"/></svg>
