<svg width="720" height="520" viewBox="0 0 720 520" fill="none" xmlns="http://www.w3.org/2000/svg"><defs><linearGradient id="a"><stop stop-color="#202820"/><stop offset="1" stop-color="#050705"/></linearGradient><radialGradient id="g"><stop stop-color="#8BFF00" stop-opacity=".3"/><stop offset="1" stop-color="#8BFF00" stop-opacity="0"/></radialGradient></defs><rect width="720" height="520" rx="48" fill="url(#a)"/><circle cx="360" cy="260" r="240" fill="url(#g)"/><g transform="rotate(12 360 260)"><path d="M288 119H432L414 177H306L288 119Z" fill="#D8DED8"/><path d="M310 98V139M335 98V139M360 98V139M385 98V139M410 98V139" stroke="#8BFF00" stroke-width="8" stroke-linecap="round"/><rect x="286" y="164" width="148" height="292" rx="65" fill="#0C110D" stroke="#8BFF00" stroke-width="5"/><rect x="315" y="213" width="90" height="64" rx="22" fill="#171F18"/><circle cx="360" cy="245" r="14" fill="#8BFF00"/><path d="M326 319H394M337 349H383" stroke="white" stroke-opacity=".25" stroke-width="8" stroke-linecap="round"/></g><path d="M493 338C571 350 590 413 540 452" stroke="#8BFF00" stroke-opacity=".35" stroke-width="7" stroke-linecap="round"/></svg>
