<svg width="720" height="520" viewBox="0 0 720 520" fill="none" xmlns="http://www.w3.org/2000/svg"><defs><linearGradient id="a"><stop stop-color="#20251E"/><stop offset="1" stop-color="#060706"/></linearGradient><radialGradient id="g"><stop stop-color="#8BFF00" stop-opacity=".28"/><stop offset="1" stop-color="#8BFF00" stop-opacity="0"/></radialGradient></defs><rect width="720" height="520" rx="48" fill="url(#a)"/><circle cx="360" cy="260" r="240" fill="url(#g)"/><path d="M229 191C250 157 286 139 324 150L360 160L396 150C434 139 470 157 491 191C529 253 561 352 510 386C477 408 440 365 408 330H312C280 365 243 408 210 386C159 352 191 253 229 191Z" fill="#0C100D" stroke="#8BFF00" stroke-width="5"/><path d="M263 251V311M233 281H293" stroke="white" stroke-width="12" stroke-linecap="round"/><circle cx="449" cy="258" r="13" fill="#8BFF00"/><circle cx="483" cy="292" r="13" fill="#8BFF00"/><circle cx="397" cy="286" r="9" fill="white" fill-opacity=".65"/><path d="M334 195H386" stroke="white" stroke-opacity=".3" stroke-width="8" stroke-linecap="round"/></svg>
